<svg id="Layer_1" data-name="Layer 1" xmlns="http://www.w3.org/2000/svg" viewBox="0 0 1366 768"><defs><style>.cls-1{fill:#f90;}.cls-2{fill:none;stroke:#000;stroke-miterlimit:10;stroke-width:0.5px;}.cls-3{fill:#fff;}.cls-4{fill:#f60;}.cls-5{fill:#fc9;}</style></defs><title>Artboard 1</title><rect class="cls-1" x="597.42" y="179.92" width="3.23" height="4.62" rx="1.28" ry="1.28"/><polygon class="cls-1" points="599.04 183 595.27 185.31 602.81 185.31 599.04 183"/><ellipse class="cls-2" cx="593.66" cy="183" rx="5.38" ry="1.16"/><ellipse class="cls-2" cx="604.42" cy="183" rx="5.38" ry="1.16"/><path class="cls-3" d="M603.28,185.08c0-18.23,6.1-34.05,15-41.94-12.11,6.89-20.62,23.18-20.62,42.17,0,19.81,9.26,36.68,22.21,43C610.11,221,603.28,204.37,603.28,185.08Z"/><ellipse class="cls-4" cx="651.5" cy="174.83" rx="61.25" ry="71.58"/><path d="M651.5,103.5c33.64,0,61,32,61,71.33s-27.36,71.33-61,71.33-61-32-61-71.33,27.36-71.33,61-71.33m0-.5c-34,0-61.5,32.16-61.5,71.83s27.53,71.83,61.5,71.83S713,214.5,713,174.83,685.47,103,651.5,103Z"/><rect class="cls-5" x="650.65" y="246.05" width="2.56" height="3.67" rx="1.28" ry="1.28"/><polygon class="cls-5" points="651.93 248.5 648.94 250.33 654.92 250.33 651.93 248.5"/><ellipse class="cls-2" cx="647.66" cy="248.5" rx="4.27" ry="0.92"/><ellipse class="cls-2" cx="656.2" cy="248.5" rx="4.27" ry="0.92"/><path class="cls-2" d="M651.93,248.8c0,80.26-5.35,145.2-12,145.2"/></svg>