<svg id="Layer_1" data-name="Layer 1" xmlns="http://www.w3.org/2000/svg" viewBox="0 0 1366 768"><defs><style>.cls-1{fill:#f90;}.cls-2{fill:none;stroke:#000;stroke-miterlimit:10;stroke-width:0.5px;}.cls-3{fill:#f09;}.cls-4{fill:#fff;}</style></defs><title>Artboard 1</title><rect class="cls-1" x="571.04" y="136.17" width="4.8" height="6.49" rx="1.28" ry="1.28"/><polygon class="cls-1" points="573.45 140.5 567.84 143.75 579.05 143.75 573.45 140.5"/><ellipse class="cls-2" cx="581.45" cy="140.5" rx="8.01" ry="1.62"/><ellipse class="cls-3" cx="651.5" cy="144.48" rx="91.25" ry="85.23"/><path d="M651.5,59.5c50.18,0,91,38.12,91,85s-40.82,85-91,85-91-38.12-91-85,40.82-85,91-85m0-.5C601,59,560,97.27,560,144.48S601,230,651.5,230,743,191.69,743,144.48,702,59,651.5,59Z"/><path class="cls-4" d="M579.76,143.42c0-25.61,9.07-47.84,22.35-58.93-18,9.69-30.67,32.57-30.67,59.26,0,27.84,13.78,51.54,33,60.44C589.91,193.84,579.76,170.53,579.76,143.42Z"/><rect class="cls-3" x="650.23" y="229.1" width="3.81" height="5.15" rx="1.28" ry="1.28"/><polygon class="cls-3" points="652.13 232.54 647.69 235.11 656.58 235.11 652.13 232.54"/><ellipse class="cls-2" cx="645.78" cy="232.54" rx="6.35" ry="1.29"/><ellipse class="cls-2" cx="658.49" cy="232.54" rx="6.35" ry="1.29"/><path class="cls-2" d="M652.14,233c0,112.77-8,204-17.8,204"/></svg>