<svg id="Layer_1" data-name="Layer 1" xmlns="http://www.w3.org/2000/svg" viewBox="0 0 1200 650"><defs><style>.cls-1{fill:#900;}.cls-2{fill:#fff;}.cls-3{fill:none;stroke:#000;stroke-miterlimit:10;stroke-width:0.5px;}.cls-4{fill:#69f;}.cls-5{fill:#f90;}.cls-6{fill:#0c0;}.cls-7{fill:#f33;}.cls-8{fill:#c0c;}.cls-9{fill:#039;}.cls-10{fill:#f0c;}</style></defs><title>Artboard 1</title><ellipse class="cls-1" cx="402" cy="195.5" rx="71.75" ry="99.25"/><path d="M402,96.5c39.43,0,71.5,44.41,71.5,99s-32.07,99-71.5,99-71.5-44.41-71.5-99,32.07-99,71.5-99m0-.5c-39.76,0-72,44.55-72,99.5S362.24,295,402,295s72-44.55,72-99.5S441.76,96,402,96Z"/><path class="cls-2" d="M345.55,194.27c0-29.81,7.13-55.69,17.59-68.6C349,137,339,163.58,339,194.65c0,32.4,10.84,60,26,70.35C353.54,253,345.55,225.82,345.55,194.27Z"/><rect class="cls-1" x="401" y="294" width="3" height="6" rx="1.5" ry="1.5"/><polygon class="cls-1" points="402.5 298 399 301 406 301 402.5 298"/><ellipse class="cls-3" cx="397.5" cy="298" rx="5" ry="1.5"/><ellipse class="cls-3" cx="407.5" cy="298" rx="5" ry="1.5"/><path class="cls-3" d="M402.5,298.5c0,131.27-6.26,237.5-14,237.5"/><ellipse class="cls-4" cx="505" cy="272.58" rx="71.75" ry="84.33"/><path d="M505,188.5c39.43,0,71.5,37.72,71.5,84.08s-32.07,84.07-71.5,84.07-71.5-37.72-71.5-84.07S465.57,188.5,505,188.5m0-.5c-39.76,0-72,37.87-72,84.58s32.24,84.57,72,84.57,72-37.87,72-84.57S544.76,188,505,188Z"/><path class="cls-2" d="M448.55,271.53c0-25.34,7.13-47.33,17.59-58.31C452,222.8,442,245.44,442,271.85c0,27.55,10.84,51,26,59.8C456.54,321.42,448.55,298.35,448.55,271.53Z"/><rect class="cls-4" x="504" y="356.3" width="3" height="5.1" rx="1.5" ry="1.5"/><polygon class="cls-4" points="505.5 359.7 502 362.25 509 362.25 505.5 359.7"/><ellipse class="cls-3" cx="500.5" cy="359.7" rx="5" ry="1.28"/><ellipse class="cls-3" cx="510.5" cy="359.7" rx="5" ry="1.28"/><path class="cls-3" d="M505.5,360.13c0,111.58-6.26,201.87-14,201.87"/><ellipse class="cls-5" cx="270.5" cy="266.26" rx="61.25" ry="92.01"/><path d="M270.5,174.5c33.64,0,61,41.16,61,91.76S304.14,358,270.5,358s-61-41.17-61-91.77,27.36-91.76,61-91.76m0-.5c-34,0-61.5,41.31-61.5,92.26s27.53,92.27,61.5,92.27S332,317.22,332,266.26,304.47,174,270.5,174Z"/><path class="cls-2" d="M222.28,265.12c0-27.64,6.1-51.63,15-63.61-12.11,10.46-20.62,35.16-20.62,64,0,30,9.26,55.63,22.21,65.24C229.11,319.55,222.28,294.38,222.28,265.12Z"/><rect class="cls-5" x="269.65" y="357.6" width="2.56" height="5.56" rx="1.28" ry="1.28"/><polygon class="cls-5" points="270.93 361.31 267.94 364.09 273.92 364.09 270.93 361.31"/><ellipse class="cls-3" cx="266.66" cy="361.31" rx="4.27" ry="1.39"/><ellipse class="cls-3" cx="275.2" cy="361.31" rx="4.27" ry="1.39"/><path class="cls-3" d="M270.93,361.77c0,121.73-5.35,220.23-12,220.23"/><ellipse class="cls-6" cx="620.5" cy="175.23" rx="77.25" ry="115.98"/><path d="M620.5,59.5c42.46,0,77,51.92,77,115.73S663,291,620.5,291s-77-51.92-77-115.74S578,59.5,620.5,59.5m0-.5C577.7,59,543,111,543,175.23s34.7,116.24,77.5,116.24,77.5-52,77.5-116.24S663.3,59,620.5,59Z"/><path class="cls-2" d="M559.73,173.8c0-34.83,7.69-65.05,18.94-80.14-15.26,13.17-26,44.29-26,80.58,0,37.85,11.67,70.08,28,82.18C568.34,242.36,559.73,210.66,559.73,173.8Z"/><rect class="cls-5" x="619.42" y="290.3" width="3.23" height="7.01" rx="1.28" ry="1.28"/><polygon class="cls-5" points="621.04 294.97 617.27 298.48 624.81 298.48 621.04 294.97"/><ellipse class="cls-3" cx="615.66" cy="294.97" rx="5.38" ry="1.75"/><ellipse class="cls-3" cx="626.42" cy="294.97" rx="5.38" ry="1.75"/><path class="cls-3" d="M621,295.56C621,448.91,614.3,573,606,573"/><ellipse class="cls-7" cx="594.5" cy="333.95" rx="61.25" ry="73.7"/><path d="M594.5,260.5c33.64,0,61,32.95,61,73.45s-27.36,73.44-61,73.44-61-32.94-61-73.44,27.36-73.45,61-73.45m0-.5c-34,0-61.5,33.11-61.5,73.95s27.53,73.94,61.5,73.94S656,374.79,656,334,628.47,260,594.5,260Z"/><path class="cls-2" d="M546.28,333c0-22.16,6.1-41.38,15-51-12.11,8.38-20.62,28.17-20.62,51.26,0,24.09,9.26,44.59,22.21,52.29C553.11,376.65,546.28,356.48,546.28,333Z"/><rect class="cls-7" x="593.65" y="407.15" width="2.56" height="4.46" rx="1.28" ry="1.28"/><polygon class="cls-7" points="594.93 410.12 591.94 412.35 597.92 412.35 594.93 410.12"/><ellipse class="cls-3" cx="590.66" cy="410.12" rx="4.27" ry="1.11"/><ellipse class="cls-3" cx="599.2" cy="410.12" rx="4.27" ry="1.11"/><path class="cls-3" d="M594.93,410.49c0,97.57-5.35,176.51-12,176.51"/><ellipse class="cls-8" cx="373.5" cy="342.77" rx="61.25" ry="63.52"/><path d="M373.5,279.5c33.64,0,61,28.38,61,63.27S407.14,406,373.5,406s-61-28.38-61-63.27,27.36-63.27,61-63.27m0-.5c-34,0-61.5,28.55-61.5,63.77s27.53,63.77,61.5,63.77S435,378,435,342.77,407.47,279,373.5,279Z"/><path class="cls-2" d="M325.28,342c0-19.11,6.1-35.69,15-44-12.11,7.23-20.62,24.3-20.62,44.21,0,20.77,9.26,38.45,22.21,45.09C332.11,379.6,325.28,362.21,325.28,342Z"/><rect class="cls-8" x="372.65" y="405.9" width="2.56" height="3.85" rx="1.28" ry="1.28" transform="translate(-145.52 217.26) rotate(-27.34)"/><polygon class="cls-8" points="373.93 408.46 370.94 410.39 376.92 410.39 373.93 408.46"/><ellipse class="cls-3" cx="369.66" cy="408.46" rx="4.27" ry="0.96"/><ellipse class="cls-3" cx="378.2" cy="408.46" rx="4.27" ry="0.96"/><path class="cls-3" d="M373.93,408.78c0,84.14-5.35,152.22-12,152.22"/><ellipse class="cls-9" cx="771" cy="179.09" rx="71.75" ry="107.84"/><path d="M771,71.5c39.43,0,71.5,48.27,71.5,107.59s-32.07,107.6-71.5,107.6-71.5-48.27-71.5-107.6S731.57,71.5,771,71.5m0-.5c-39.76,0-72,48.39-72,108.09s32.24,108.1,72,108.1,72-48.4,72-108.1S810.76,71,771,71Z"/><path class="cls-2" d="M714.55,177.76c0-32.39,7.13-60.5,17.59-74.53C718,115.48,708,144.42,708,178.17c0,35.2,10.84,65.17,26,76.43C722.54,241.52,714.55,212,714.55,177.76Z"/><rect class="cls-9" x="770" y="286.1" width="3" height="6.52" rx="1.5" ry="1.5"/><polygon class="cls-9" points="771.5 290.44 768 293.7 775 293.7 771.5 290.44"/><ellipse class="cls-3" cx="766.5" cy="290.45" rx="5" ry="1.63"/><ellipse class="cls-3" cx="776.5" cy="290.45" rx="5" ry="1.63"/><path class="cls-3" d="M771.5,291c0,142.61-6.26,258-14,258"/><ellipse class="cls-10" cx="673.5" cy="299.26" rx="61.25" ry="92.01"/><path d="M673.5,207.5c33.64,0,61,41.16,61,91.76S707.14,391,673.5,391s-61-41.17-61-91.77,27.36-91.76,61-91.76m0-.5c-34,0-61.5,41.31-61.5,92.26s27.53,92.27,61.5,92.27S735,350.22,735,299.26,707.47,207,673.5,207Z"/><path class="cls-2" d="M625.28,298.12c0-27.64,6.1-51.63,15-63.61-12.11,10.46-20.62,35.16-20.62,64,0,30,9.26,55.63,22.21,65.24C632.11,352.55,625.28,327.38,625.28,298.12Z"/><rect class="cls-10" x="672.65" y="390.6" width="2.56" height="5.56" rx="1.28" ry="1.28"/><polygon class="cls-10" points="673.93 394.31 670.94 397.09 676.92 397.09 673.93 394.31"/><ellipse class="cls-3" cx="669.66" cy="394.31" rx="4.27" ry="1.39"/><ellipse class="cls-3" cx="678.2" cy="394.31" rx="4.27" ry="1.39"/><path class="cls-3" d="M673.93,394.77c0,121.73-5.35,220.23-12,220.23"/><path class="cls-2" d="M728.28,375c0-19.11,6.1-35.69,15-44-12.11,7.23-20.62,24.3-20.62,44.21,0,20.77,9.26,38.45,22.21,45.09C735.11,412.6,728.28,395.21,728.28,375Z"/></svg>
