<svg id="Layer_1" data-name="Layer 1" xmlns="http://www.w3.org/2000/svg" viewBox="0 0 1366 768"><defs><style>.cls-1{fill:#f90;}.cls-2{fill:none;stroke:#000;stroke-miterlimit:10;stroke-width:0.5px;}.cls-3{fill:#69f;}.cls-4{fill:#fff;}</style></defs><title>Artboard 1</title><rect class="cls-1" x="597.42" y="208.3" width="3.23" height="7.01" rx="1.28" ry="1.28"/><polygon class="cls-1" points="599.04 212.97 595.27 216.48 602.81 216.48 599.04 212.97"/><ellipse class="cls-2" cx="593.66" cy="212.97" rx="5.38" ry="1.75"/><ellipse class="cls-2" cx="604.42" cy="212.97" rx="5.38" ry="1.75"/><ellipse class="cls-3" cx="651.5" cy="217.26" rx="61.25" ry="92.01"/><path d="M651.5,125.5c33.64,0,61,41.16,61,91.76S685.14,309,651.5,309s-61-41.17-61-91.77,27.36-91.76,61-91.76m0-.5c-34,0-61.5,41.31-61.5,92.26s27.53,92.27,61.5,92.27S713,268.22,713,217.26,685.47,125,651.5,125Z"/><path class="cls-4" d="M603.28,216.12c0-27.64,6.1-51.63,15-63.61-12.11,10.46-20.62,35.16-20.62,64,0,30.05,9.26,55.63,22.21,65.24C610.11,270.55,603.28,245.38,603.28,216.12Z"/><rect class="cls-3" x="650.65" y="308.6" width="2.56" height="5.56" rx="1.28" ry="1.28"/><polygon class="cls-3" points="651.93 312.31 648.94 315.09 654.92 315.09 651.93 312.31"/><ellipse class="cls-2" cx="647.66" cy="312.31" rx="4.27" ry="1.39"/><ellipse class="cls-2" cx="656.2" cy="312.31" rx="4.27" ry="1.39"/><path class="cls-2" d="M651.93,312.77c0,121.73-5.35,220.23-12,220.23"/></svg>