<svg id="Layer_1" data-name="Layer 1" xmlns="http://www.w3.org/2000/svg" viewBox="0 0 1366 768"><defs><style>.cls-1{fill:#f90;}.cls-2{fill:none;stroke:#000;stroke-miterlimit:10;stroke-width:0.5px;}.cls-3{fill:#0c0;}.cls-4{fill:#fff;}</style></defs><title>Artboard 1</title><rect class="cls-1" x="539.94" y="180.48" width="6.06" height="10.22" rx="1.28" ry="1.28"/><polygon class="cls-1" points="542.97 187.29 535.9 192.4 550.05 192.4 542.97 187.29"/><ellipse class="cls-2" cx="553.08" cy="187.29" rx="10.11" ry="2.56"/><ellipse class="cls-3" cx="641.5" cy="193.55" rx="115.25" ry="134.3"/><path d="M641.5,59.5c30.7,0,59.57,13.93,81.29,39.23s33.71,59,33.71,94.82-12,69.49-33.71,94.82S672.2,327.6,641.5,327.6s-59.57-13.93-81.29-39.23-33.71-59-33.71-94.82,12-69.49,33.71-94.82S610.8,59.5,641.5,59.5m0-.5C577.71,59,526,119.24,526,193.55S577.71,328.1,641.5,328.1,757,267.86,757,193.55,705.29,59,641.5,59Z"/><path class="cls-4" d="M550.94,191.89c0-40.32,11.45-75.31,28.22-92.77-22.74,15.25-38.72,51.27-38.72,93.28,0,43.82,17.39,81.12,41.71,95.13C563.76,271.25,550.94,234.56,550.94,191.89Z"/><rect class="cls-3" x="639.9" y="326.75" width="4.81" height="8.11" rx="1.28" ry="1.28"/><polygon class="cls-3" points="642.3 332.16 636.69 336.22 647.92 336.22 642.3 332.16"/><ellipse class="cls-2" cx="634.28" cy="332.16" rx="8.02" ry="2.03"/><ellipse class="cls-2" cx="650.32" cy="332.16" rx="8.02" ry="2.03"/><path class="cls-2" d="M642.3,332.84c0,177.51-10,321.16-22.46,321.16"/></svg>