<svg id="Layer_1" data-name="Layer 1" xmlns="http://www.w3.org/2000/svg" xmlns:xlink="http://www.w3.org/1999/xlink" viewBox="0 0 1366 768"><defs><style>.cls-1{fill:url(#linear-gradient);}.cls-2{fill:url(#linear-gradient-2);}.cls-3{fill:url(#linear-gradient-3);}.cls-4{fill:url(#linear-gradient-4);}.cls-5{fill:url(#linear-gradient-5);}.cls-6{fill:url(#radial-gradient);}</style><linearGradient id="linear-gradient" x1="350.94" y1="124.47" x2="127.9" y2="347.51" gradientUnits="userSpaceOnUse"><stop offset="0" stop-color="#fff"/><stop offset="0.13" stop-color="#eaf6fd"/><stop offset="0.4" stop-color="#b6dff6"/><stop offset="0.45" stop-color="#abdaf5"/><stop offset="0.76" stop-color="#67bced"/><stop offset="1" stop-color="#2fa4e7"/></linearGradient><linearGradient id="linear-gradient-2" x1="812.1" y1="167.58" x2="641.42" y2="338.26" xlink:href="#linear-gradient"/><linearGradient id="linear-gradient-3" x1="1285.21" y1="352.79" x2="1141.41" y2="496.59" xlink:href="#linear-gradient"/><linearGradient id="linear-gradient-4" x1="5" y1="333.34" x2="1370.9" y2="333.34" gradientUnits="userSpaceOnUse"><stop offset="0" stop-color="#ffffe4"/><stop offset="0.22" stop-color="#fff5d7" stop-opacity="0.76"/><stop offset="0.6" stop-color="#ffe3c0" stop-opacity="0.36"/><stop offset="0.87" stop-color="#ffd7b2" stop-opacity="0.1"/><stop offset="1" stop-color="#ffd3ac" stop-opacity="0"/></linearGradient><linearGradient id="linear-gradient-5" y1="501" x2="91" y2="501" gradientUnits="userSpaceOnUse"><stop offset="0" stop-color="#ff5c28" stop-opacity="0"/><stop offset="0" stop-color="#ff5c28" stop-opacity="0.01"/><stop offset="0.08" stop-color="#ff5c28" stop-opacity="0.22"/><stop offset="0.17" stop-color="#ff5c28" stop-opacity="0.4"/><stop offset="0.26" stop-color="#ff5c28" stop-opacity="0.56"/><stop offset="0.35" stop-color="#ff5c28" stop-opacity="0.7"/><stop offset="0.45" stop-color="#ff5c28" stop-opacity="0.81"/><stop offset="0.56" stop-color="#ff5c28" stop-opacity="0.89"/><stop offset="0.67" stop-color="#ff5c28" stop-opacity="0.95"/><stop offset="0.81" stop-color="#ff5c28" stop-opacity="0.99"/><stop offset="1" stop-color="#ff5c28"/></linearGradient><radialGradient id="radial-gradient" cx="1324" cy="477" r="90.57" gradientUnits="userSpaceOnUse"><stop offset="0" stop-color="#ff5c28" stop-opacity="0"/><stop offset="0.18" stop-color="#ff5c28" stop-opacity="0.23"/><stop offset="0.4" stop-color="#ff5c28" stop-opacity="0.5"/><stop offset="0.6" stop-color="#ff5c28" stop-opacity="0.72"/><stop offset="0.78" stop-color="#ff5c28" stop-opacity="0.87"/><stop offset="0.92" stop-color="#ff5c28" stop-opacity="0.97"/><stop offset="1" stop-color="#ff5c28"/></radialGradient></defs><title>Artboard 1</title><path class="cls-1" d="M107.8,155.77C60.86,272.24-2,310.47,5.8,335.77c7.61,24.79,83.66,39.5,393-9-14.33-192.36-83.43-319.24-144-320-40.5-.5-103.23,55.06-134,117C114.88,135.69,114.66,138.75,107.8,155.77Z"/><path class="cls-2" d="M608.11,145.13c-3,2.58-6,5.19-9,7.8-32.33,24.24-61.73,54-92.15,80.67-7.29,6.38-16.22,12.45-22.57,19.75-3.32,3.82-6.3,3.72-5.4,8.3.56,2.85,11.08,9,13.51,10.93l48.55,39.31,194.2,157.25L745,477c-4.22-3.42,20.8-54.21,23.23-59.19,11.85-24.34,26.32-47.72,43.64-68.57a264.66,264.66,0,0,1,124.61-83.42c-1.57.49-26.81-33.07-29.59-36.18-11.87-13.24-24.35-25.95-37.47-37.95-23-21-48-40.07-75.37-55.1-43.66-24-103.26-42.47-150.21-17.21C630.88,126.35,619.31,135.53,608.11,145.13Z"/><polygon class="cls-3" points="1225 264 1030.5 458.5 1179.5 607.5 1341 446 1225 264"/><path class="cls-4" d="M97.59,641.3c16.47.08,32.46,4,48.79,4.06,25.26.12,50.17-7.43,74.78-2.56,28.56,5.65,56.41,10.59,85.67,10.91,56.11.62,111.92-11.38,168-9,20.33.86,40.57,3.62,60.91,3.69,18.7.07,37.32-2.13,56-3.19,31.36-1.79,62.8-.35,94.21.5,74.72,2,149.48.68,224.21-.65l123.59-2.21c32.34-.58,65.1-1.12,96.57,6.38,12.73,3,25.57,7.41,38.58,6,10.72-1.16,20.59-6.15,30.61-10.14,17-6.77,39-10.53,62.19-10.68,39.35-.26,82.06,9.85,109.23,33.24l-.4-412.49c-99.69-104.68-186.33-133.22-250-138.1C1046.92,111.45,830.3,34.56,809.5-1H5V662.73C33.32,647.5,68.9,641.15,97.59,641.3Z"/><path class="cls-5" d="M0,588c50.26,0,91-39,91-87S50.26,414,0,414"/><path class="cls-6" d="M1366,598c-46.39,0-84-54.17-84-121s37.61-121,84-121"/></svg>