<svg id="Layer_1" data-name="Layer 1"
     xmlns="http://www.w3.org/2000/svg"
     viewBox="0 0 1920 1080"><defs><style>.cls-1,.cls-4{fill:#3fa9f5;}.cls-1,.cls-12,.cls-13,.cls-4,.cls-5,.cls-7,.cls-8{stroke:#3fa9f5;}.cls-1,.cls-10,.cls-11,.cls-12,.cls-13,.cls-2,.cls-3,.cls-4,.cls-5,.cls-7,.cls-8,.cls-9{stroke-miterlimit:10;}.cls-1,.cls-2{opacity:0.31;}.cls-10,.cls-11,.cls-2,.cls-3,.cls-9{fill:#ff5c28;stroke:#ff5c28;}.cls-3,.cls-4{stroke-width:0.5px;opacity:0.29;}.cls-12,.cls-13,.cls-5,.cls-7,.cls-8{fill:none;}.cls-5{stroke-width:2px;}.cls-6{opacity:0.25;}.cls-10,.cls-7,.cls-8,.cls-9{stroke-width:4px;}.cls-10,.cls-8{opacity:0.49;}.cls-11{opacity:0.61;font-size:35px;font-family:BerlinSansFBDemi-Bold, Berlin Sans FB Demi;font-weight:700;}.cls-12,.cls-13{stroke-width:5px;}.cls-13{opacity:0.33;}.cls-14{fill:#ffc628;}</style></defs><title>Artboard 1</title><polygon class="cls-1" points="262.32 554.57 256.11 609.52 302.13 592.95 262.32 554.57"/><polygon class="cls-2" points="101.66 721.53 62.34 757.78 107.84 774.65 101.66 721.53"/><circle class="cls-3" cx="106.44" cy="335.1" r="19"/><circle class="cls-3" cx="105.77" cy="313.64" r="19"/><circle class="cls-3" cx="125.11" cy="324.18" r="19"/><circle class="cls-4" cx="1761.5" cy="839.5" r="19"/><circle class="cls-4" cx="1751.5" cy="820.5" r="19"/><circle class="cls-4" cx="1773.5" cy="821.5" r="19"/><circle class="cls-5" cx="1624.03" cy="303.86" r="6.25"/><line class="cls-5" x1="1642.55" y1="296.59" x2="1623.44" y2="324.73"/><circle class="cls-5" cx="1642.66" cy="317.34" r="6.25"/><g class="cls-6"><circle class="cls-7" cx="1623.91" cy="304.86" r="6.25"/><line class="cls-7" x1="1642.44" y1="297.58" x2="1623.32" y2="325.72"/><circle class="cls-7" cx="1642.55" cy="318.34" r="6.25"/></g><line class="cls-7" x1="20" y1="497" x2="65" y2="497"/><line class="cls-7" x1="42" y1="474" x2="42" y2="520"/><line class="cls-8" x1="22" y1="500" x2="67" y2="500"/><line class="cls-8" x1="44" y1="477" x2="44" y2="523"/><line class="cls-9" x1="1763.54" y1="415" x2="1801" y2="388.73"/><line class="cls-9" x1="1768.09" y1="383.48" x2="1795.62" y2="420.83"/><line class="cls-10" x1="1764.92" y1="416.27" x2="1801.46" y2="390"/><line class="cls-10" x1="1769.36" y1="384.75" x2="1796.21" y2="422.1"/><text class="cls-11" transform="translate(1488.11 897.27)">123</text><polygon class="cls-1" points="1649.5 553.02 1649.5 608.32 1693.37 586.7 1649.5 553.02"/><line class="cls-12" x1="191" y1="878" x2="239.5" y2="875.5"/><line class="cls-13" x1="193" y1="881" x2="241.5" y2="878.5"/><path class="cls-14" d="M-19.67,136.92l-4.27,51.82c2.12,14.58,4.52,29.11,9.93,43.39l503-184L-7.33-12.74"/></svg>
